{"title":"Arrow S02E01 - 720p x264 HD [MKV,AC3,5.1] Ehhhh","uid":9030376,"size":438844184,"categoryP":"video","categoryS":"hd___tv_shows","magnet":"?xt=urn:btih:17996caa5c895c6df598438e8a819aed60f5c9bc&amp;dn=Arrow+S02E01+-+720p+x264+HD+%5BMKV%2CAC3%2C5.1%5D+Ehhhh&amp;tr=udp%3A%2F%2Ftracker.openbittorrent.com%3A80&amp;tr=udp%3A%2F%2Fopen.demonii.com%3A1337&amp;tr=udp%3A%2F%2Ftracker.coppersurfer.tk%3A6969&amp;tr=udp%3A%2F%2Fexodus.desync.com%3A6969","seeders":0,"leechers":1,"uploader":"Ehhhhtozebec","files":-1,"time":1381444634,"description":"image\n\nCity Of Heroes\nDiggle and Felicity travel to Lian Yu in search of Oliver who left Starling City after The Undertaking. Convinced to return home, Oliver finds that things are in worse shape than he thought - Isabel Rochev is preparing a hostile takeover of Queen Consolidated, Thea refuses to visit Moira in jail, Roy is trying to fill the void left by the Arrow's absence, and Laurel is working with the District Attorney's office to take down the vigilante. Meanwhile, flashbacks to the island show Slade, Shado, and Oliver in a desperate situation.\n\nimage\nimage\nGeneral\nFormat : Matroska\nFormat version : Version 4 / Version 2\nFile size : 417 MiB\nDuration : 41mn 55s\nOverall bit rate : 1 390 Kbps\nEncoded date : UTC 2013-10-10 17:40:51\nWriting application : mkvmerge v6.2.0 ('Promised Land') built on Apr 28 2013 12:22:01\nWriting library : libebml v1.3.0 + libmatroska v1.4.0\n\nVideo\nID : 1\nFormat : AVC\nFormat/Info : Advanced Video Codec\nFormat profile : &lt;a class=&quot;__cf_email__&quot; href=&quot;/cdn-cgi/l/email-protection&quot; data-cfemail=&quot;5911303e3119156d7768&quot;&gt;[email&amp;#160;protected]&lt;/a&gt;&lt;script cf-hash='f9e31' type=&quot;text/javascript&quot;&gt;\n/* &lt;![CDATA[ */!function(){try{var t=&quot;currentScript&quot;in document?document.currentScript:function(){for(var t=document.getElementsByTagName(&quot;script&quot;),e=t.length;e--;)if(t[e].getAttribute(&quot;cf-hash&quot;))return t[e]}();if(t&amp;&amp;t.previousSibling){var e,r,n,i,c=t.previousSibling,a=c.getAttribute(&quot;data-cfemail&quot;);if(a){for(e=&quot;&quot;,r=parseInt(a.substr(0,2),16),n=2;a.length-n;n+=2)i=parseInt(a.substr(n,2),16)^r,e+=String.fromCharCode(i);e=document.createTextNode(e),c.parentNode.replaceChild(e,c)}}}catch(u){}}();/* ]]&gt; */&lt;/script&gt;\nFormat settings, CABAC : Yes\nFormat settings, ReFrames : 14 frames\nCodec ID : V_MPEG4/ISO/AVC\nDuration : 41mn 55s\nBit rate : 1 010 Kbps\nWidth : 1 280 pixels\nHeight : 720 pixels\nDisplay aspect ratio : 16:9\nFrame rate mode : Constant\nFrame rate : 23.976 fps\nColor space : YUV\nChroma subsampling : 4:2:0\nBit depth : 8 bits\nScan type : Progressive\nBits/(Pixel*Frame) : 0.046\nStream size : 293 MiB (70%)\nWriting library : x264 core 138 r2359+704+48 3f879a0 tMod [8-bit@all X86]\nDefault : Yes\nForced : No\n\nAudio\nID : 2\nFormat : AC-3\nFormat/Info : Audio Coding 3\nMode extension : CM (complete main)\nFormat settings, Endianness : Big\nCodec ID : A_AC3\nDuration : 41mn 55s\nBit rate mode : Constant\nBit rate : 384 Kbps\nChannel(s) : 6 channels\nChannel positions : Front: L C R, Side: L R, LFE\nSampling rate : 48.0 KHz\nBit depth : 16 bits\nCompression mode : Lossy\nStream size : 115 MiB (28%)\nDefault : Yes\nForced : No\n\n\n","torrent":{"xt":"urn:btih:17996caa5c895c6df598438e8a819aed60f5c9bc","amp;dn":"Arrow+S02E01+-+720p+x264+HD+%5BMKV%2CAC3%2C5.1%5D+Ehhhh","amp;tr":["udp%3A%2F%2Ftracker.openbittorrent.com%3A80","udp%3A%2F%2Fopen.demonii.com%3A1337","udp%3A%2F%2Ftracker.coppersurfer.tk%3A6969","udp%3A%2F%2Fexodus.desync.com%3A6969"],"infoHash":"17996caa5c895c6df598438e8a819aed60f5c9bc","infoHashBuffer":{"type":"Buffer","data":[23,153,108,170,92,137,92,109,245,152,67,142,138,129,154,237,96,245,201,188]},"announce":[],"urlList":[]}}